HIERARCHY
ROOT Hips
{
  OFFSET 13.6774 106.653 -34.4427
  CHANNELS 6 Xposition Yposition Zposition Zrotation Xrotation Yrotation
  JOINT ToSpine
  {
    OFFSET -2.69724 7.43032 -0.144315
    CHANNELS 3 Zrotation Xrotation Yrotation
    JOINT Spine
    {
      OFFSET -0.0310711 10.7595 1.96963
      CHANNELS 3 Zrotation Xrotation Yrotation
      JOINT Spine1
      {
        OFFSET 19.9056 3.91189 0.764692
        CHANNELS 3 Zrotation Xrotation Yrotation
        JOINT Neck
        {
          OFFSET 25.9749 7.03908 -0.130764
          CHANNELS 3 Zrotation Xrotation Yrotation
          JOINT Head
          {
            OFFSET 9.52751 0.295786 -0.907742
            CHANNELS 3 Zrotation Xrotation Yrotation
            End Site
            {
              OFFSET 16.4037 0.713936 2.7358
            }
          }
        }
        JOINT LeftShoulder
        {
          OFFSET 17.7449 4.33886 11.7777
          CHANNELS 3 Zrotation Xrotation Yrotation
          JOINT LeftArm
          {
            OFFSET 0.911315 1.27913 9.80584
            CHANNELS 3 Zrotation Xrotation Yrotation
            JOINT LeftForeArm
            {
              OFFSET 28.6126 1.18197 -3.53199
              CHANNELS 3 Zrotation Xrotation Yrotation
              JOINT LeftHand
              {
                OFFSET 27.5088 0.0218783 0.327423
                CHANNELS 3 Zrotation Xrotation Yrotation
                End Site
                {
                  OFFSET 18.6038 -0.000155887 0.382096
                }
              }
            }
          }
        }
        JOINT RightShoulder
        {
          OFFSET 17.1009 2.89543 -12.2328
          CHANNELS 3 Zrotation Xrotation Yrotation
          JOINT RightArm
          {
            OFFSET 1.4228 0.178766 -10.211
            CHANNELS 3 Zrotation Xrotation Yrotation
            JOINT RightForeArm
            {
              OFFSET 28.733 1.87905 2.64907
              CHANNELS 3 Zrotation Xrotation Yrotation
              JOINT RightHand
              {
                OFFSET 27.4588 0.290562 -0.101845
                CHANNELS 3 Zrotation Xrotation Yrotation
                End Site
                {
                  OFFSET 17.8396 -0.255518 -0.000602873
                }
              }
            }
          }
        }
      }
    }
  }
  JOINT LeftUpLeg
  {
    OFFSET -5.61296 -2.22332 -10.2353
    CHANNELS 3 Zrotation Xrotation Yrotation
    JOINT LeftLeg
    {
      OFFSET 2.56703 -44.7417 -7.93097
      CHANNELS 3 Zrotation Xrotation Yrotation
      JOINT LeftFoot
      {
        OFFSET 3.16933 -46.5642 -3.96578
        CHANNELS 3 Zrotation Xrotation Yrotation
        JOINT LeftToeBase
        {
          OFFSET 0.346054 -6.02161 12.8035
          CHANNELS 3 Zrotation Xrotation Yrotation
          End Site
          {
            OFFSET 0.134235 -1.35082 5.13018
          }
        }
      }
    }
  }
  JOINT RightUpLeg
  {
    OFFSET -5.7928 -1.72406 10.6446
    CHANNELS 3 Zrotation Xrotation Yrotation
    JOINT RightLeg
    {
      OFFSET -2.57161 -44.7178 -7.85259
      CHANNELS 3 Zrotation Xrotation Yrotation
      JOINT RightFoot
      {
        OFFSET -3.10148 -46.5936 -4.03391
        CHANNELS 3 Zrotation Xrotation Yrotation
        JOINT RightToeBase
        {
          OFFSET -0.0828122 -6.13587 12.8035
          CHANNELS 3 Zrotation Xrotation Yrotation
          End Site
          {
            OFFSET -0.131328 -1.35082 5.13018
          }
        }
      }
    }
  }
}
MOTION
Frames: 19
Frame Time: 0.03333333333333333
0.0000 93.1000 0.0000 -99.6681 -12.0865 140.5576 -70.6792 0.0311 87.8458 169.2605 50.0010 -85.3303 3.9789 37.8105 -22.4086 -130.9850 16.8995 -153.3564 -147.6010 50.2046 -159.6272 0.6054 -14.9590 -19.9523 -110.5782 26.7782 -88.3935 -1.3320 -1.0914 -57.4912 0.0377 -0.6690 -0.4821 -0.1290 16.6399 -1.0053 -116.4860 -22.2082 110.3193 2.8402 -58.8916 7.5770 3.3278 0.9362 -1.9239 16.8049 0.7549 81.6498 0.9604 21.3302 -19.8881 -12.5117 -6.1219 0.9409 -4.0683 6.5099 -0.2148 -62.4181 -39.1651 55.9474 -2.1562 43.1460 -21.6081 -25.1538 -19.8799 -0.0064 0.4834 -23.8201 -37.0036 
0.0000 93.1000 0.0000 -104.6718 -22.7277 137.6577 -70.8416 0.0012 87.8536 158.5339 52.6272 -83.8754 4.5790 33.8677 -21.1774 -128.6805 16.8811 -155.3644 -145.5926 50.2906 -157.3950 0.5578 -15.1259 -13.9601 -116.5556 21.7684 -98.5681 -4.4981 -2.7165 -55.4838 0.2256 -0.4321 0.1021 -0.5376 16.7947 3.5646 -107.6378 -17.3618 105.9399 -3.4905 -63.9874 3.3409 2.3270 0.6110 -1.9818 19.1611 10.9262 76.8880 2.6333 19.0133 -18.3281 -11.6573 -7.0557 0.5976 -6.5388 9.1516 2.8725 -65.8589 -33.9703 62.9853 -1.1707 41.0158 -17.5693 -25.9705 -12.9288 0.4669 -0.7259 -26.8152 -24.4756 
0.0000 93.1000 0.0000 -107.3579 -31.5557 135.2381 -71.0280 -0.7299 87.5055 147.5810 57.0313 -80.8490 3.4994 29.6475 -17.2810 -126.7992 15.7479 -154.3362 -146.9988 50.0472 -149.8855 0.1292 -13.2048 -6.7676 -125.1776 16.5126 -106.6858 -2.0939 -1.0266 -53.0495 0.3117 0.1998 0.2071 -1.0597 15.6095 10.0983 -97.0238 -15.4660 98.9066 -1.2484 -62.3552 8.4524 0.9711 -0.2212 -1.8211 21.1975 22.7743 68.1114 4.6418 19.6442 -12.7055 -14.5324 -14.5020 0.0524 -12.8245 18.3630 10.8171 -67.0430 -27.8689 75.5239 -0.4861 39.5298 -5.5666 -24.8818 -7.2610 0.7832 -0.9827 -32.8165 -26.5227 
0.0000 93.1000 0.0000 -108.8615 -43.1912 135.5410 -71.0287 0.3509 87.1765 130.4647 62.4449 -70.3423 3.4417 24.1822 -13.9406 -122.7005 15.1112 -155.8367 -144.7422 47.9101 -148.9035 0.7060 -10.8634 -2.8270 -133.4858 15.2445 -113.3912 3.6967 3.0369 -54.2762 0.4512 0.2918 -0.7039 -0.8985 13.2175 20.8745 -75.9141 -12.7043 90.8386 9.8980 -51.5922 23.8709 0.7451 -0.2971 -0.8761 24.9764 32.4172 62.0152 3.7942 19.1253 -20.0401 -16.1025 -17.8281 -1.3359 -8.4618 6.1104 20.5780 -66.1582 -21.5250 82.6762 0.5180 37.0089 -0.5964 -23.5659 -3.3940 2.5652 -0.0792 -37.9019 -30.3165 
0.0000 93.1000 0.0000 -113.7961 -57.9801 133.3674 -71.0134 -0.1812 87.5341 107.4661 63.8859 -49.6765 3.2731 17.6236 -10.8833 -117.9204 13.9454 -155.3148 -144.2821 46.1489 -147.0321 0.4281 -8.4965 0.3478 -136.5490 17.0972 -119.5439 6.3425 4.7586 -55.8693 -0.3393 0.2803 -0.4708 -2.3259 10.8673 32.4671 -55.0525 -10.2287 82.6098 8.9564 -38.4849 26.6304 0.3441 -0.1299 -0.7449 26.7432 34.6183 61.0090 3.7805 17.6871 -18.3272 -8.6992 -6.6368 -1.2189 1.4267 -5.7071 -12.8866 -66.1020 -18.3148 82.1565 0.8071 32.7283 4.9334 -19.5398 -0.9655 1.1590 -1.4606 -37.6127 -31.1436 
0.0000 93.1000 0.0000 -113.9702 -68.7701 134.3120 -70.8989 -0.5578 86.9088 88.5572 63.6280 -30.5878 3.1849 13.8774 -9.8871 -114.7331 12.7244 -157.0779 -145.9297 44.8437 -146.0163 0.5033 -5.1447 2.9254 -132.6566 25.7163 -124.5423 4.0999 2.2044 -56.7814 0.0935 0.4300 -0.2203 -2.1916 9.4473 35.7710 -74.4677 -13.8263 69.8800 7.0443 -61.5224 23.2984 0.9609 -0.1937 0.3105 29.2367 36.2111 47.5404 -1.6801 32.0364 15.5066 -11.4370 -14.5228 -1.5660 -9.0370 14.3829 6.4161 -63.6520 -13.8503 88.6846 1.7156 31.8921 10.8168 -18.5209 1.1606 1.5961 -1.8853 -40.5401 -32.5125 
0.0000 93.1000 0.0000 -115.7006 -72.1689 132.7020 -70.9331 -0.6697 87.0389 82.7292 64.4150 -24.0573 4.4436 14.4856 -10.9475 -115.7046 12.1680 -160.3362 -150.6603 45.1177 -145.8123 0.7039 -3.3429 1.8909 -123.2889 34.9154 -137.6564 2.4068 0.7272 -57.8933 0.0060 0.3223 -0.2214 -2.7278 9.6445 41.8040 -76.2320 -14.3764 59.1872 5.6881 -69.9690 20.5896 0.4803 0.0355 0.6723 28.1302 43.8174 49.0452 -2.8514 50.6431 3.2158 -13.5094 -15.5118 -0.7003 -9.4778 10.8203 12.4808 -62.2812 -10.4487 93.5486 0.8835 32.5345 10.4441 -18.3107 0.2849 1.3503 -1.0305 -41.7015 -28.4823 
0.0000 93.1000 0.0000 -125.4104 -78.2364 126.6418 -70.7488 -0.4437 87.5744 83.2428 64.7771 -21.5734 5.5518 14.6862 -8.6376 -117.8250 12.9953 -164.2511 -156.2757 46.9741 -149.1885 0.5647 -6.4157 -3.0128 -113.1201 44.7745 -143.7585 5.7502 2.9995 -64.7259 -0.0564 0.4283 0.1182 -2.9161 8.6683 44.7097 -74.4519 -22.1828 54.9627 11.3150 -69.6106 27.0806 0.6587 0.1063 1.4576 20.6482 45.9738 52.4646 -8.7650 66.9273 -2.9059 -13.2379 -11.1869 -0.0591 -3.1903 1.8482 4.3072 -61.3624 -9.0068 90.2047 0.4679 32.7054 8.5724 -18.6987 -2.0398 1.3385 -0.3108 -36.9466 -23.6077 
0.0000 93.1000 0.0000 -173.9190 -85.6013 78.5008 -70.2832 -0.4316 88.3142 80.7448 64.3378 -15.3504 5.2017 13.4321 -4.5222 -115.4832 14.4468 -167.3737 -159.9135 49.9626 -147.4655 -0.0971 -12.2772 -8.4409 -99.6666 50.7807 -148.6275 12.1660 2.7713 -73.7032 -0.2775 0.6468 0.3484 -3.1014 7.0677 48.8021 -71.2284 -30.4854 56.2453 9.3829 -61.8559 25.3635 0.2292 -0.1090 1.8142 8.1551 42.9262 60.3598 -16.5744 74.4840 -1.2061 -15.3715 -4.0544 0.9407 -1.0398 -3.6108 3.7178 -58.1132 -6.8103 86.7583 -0.1170 32.8899 2.0568 -21.0878 -4.4869 1.9497 0.4064 -33.1956 -14.6172 
0.0000 93.1000 0.0000 94.1043 -79.8837 -7.0844 -70.9918 -1.4021 87.2869 72.5190 63.4755 -4.3998 8.4346 12.1604 -1.9166 -119.9417 17.3545 -168.4716 -167.8582 52.4939 -142.1529 -0.5508 -15.8085 -11.3606 -76.4790 53.3306 -160.7499 16.2486 3.1659 -79.1133 -0.2293 0.9895 0.8247 -3.0550 6.3614 51.7652 -74.8998 -33.8590 61.4259 8.5073 -54.0175 24.3862 0.8176 -0.5990 1.5804 -6.8779 35.1269 71.4314 -19.9741 78.2419 8.2856 -19.1630 4.4304 3.2091 -2.8452 1.5697 2.5395 -53.2895 -5.0241 88.4485 -0.2536 34.6690 10.3600 -17.7204 -4.9462 0.8172 0.5847 -32.9191 -27.8165 
0.0000 93.1000 0.0000 82.5836 -74.2022 -16.9658 -70.8267 -1.1961 87.3065 69.7299 63.6453 0.6810 9.2350 12.8283 0.0221 -122.7508 19.9500 -169.5331 -173.3257 55.0036 -140.3761 -0.7487 -19.8941 -15.8048 -61.9992 51.2592 -163.5542 19.9887 1.9319 -83.8928 -0.3927 0.6237 0.3193 -3.0113 5.4304 51.1283 -75.4350 -33.4430 70.7488 10.2193 -47.2469 25.1148 0.0102 -0.2646 1.3269 -22.5212 27.8151 79.3100 -12.1994 74.9757 9.2352 -20.5448 8.7127 4.0723 -5.0726 7.7339 0.5770 -49.4005 -4.5125 89.9761 -1.6087 36.0170 18.2785 -15.1262 -4.7734 0.7022 0.3121 -34.8285 -22.3355 
0.0000 93.1000 0.0000 79.0309 -68.4821 -16.9934 -70.6978 -0.3387 87.6629 73.6858 62.6413 3.2078 10.0644 12.9640 1.3596 -125.8469 22.7418 -168.9662 -178.4534 57.2051 -139.0332 -0.6274 -21.8423 -17.0805 -50.6040 46.3835 -163.6048 24.4906 1.8724 -84.7534 -0.4522 0.9779 0.2112 -1.7297 4.6526 47.8880 -73.1245 -33.4257 83.8094 12.0175 -37.3843 26.2196 0.3277 -0.7973 1.3168 -38.0248 20.9365 84.3425 -7.0361 68.8228 8.0739 -14.4559 6.4200 1.8575 -4.9256 7.4714 -2.2521 -47.9268 -4.3334 89.4476 -3.0318 33.9447 29.5251 -14.1749 2.0802 1.5286 2.5992 -34.7299 -16.8099 
0.0000 93.1000 0.0000 75.5320 -61.8345 -16.9695 -70.9114 0.9799 88.1529 70.9511 61.8048 10.1541 11.3434 12.3224 3.3172 -128.7744 24.7377 -169.5260 -179.1589 59.9419 -138.9239 0.5291 -22.1818 -16.3971 -42.5455 37.5957 -165.6851 25.8210 3.0345 -82.1706 0.0675 -0.3410 0.0298 -1.6461 4.9252 45.8332 -73.3734 -29.3539 89.9522 14.5230 -26.3703 33.1131 0.1921 0.6681 0.2179 -47.3064 14.4826 85.1301 -4.0140 61.6952 9.4872 -8.4223 2.1022 1.0875 -7.2170 13.0950 1.1829 -44.8570 -5.2447 86.6566 -1.3931 33.9012 29.7909 -14.4077 6.1340 1.9490 1.0856 -22.0055 -4.9037 
0.0000 93.1000 0.0000 69.1862 -52.8897 -17.4911 -71.1696 -1.5078 88.2825 63.9422 61.1760 18.5918 9.1511 11.6255 6.8935 -127.5816 25.4703 -179.0988 -169.0876 63.5280 -151.3544 -1.3285 -22.7679 -13.7522 -39.4379 29.2047 -166.4214 26.4688 3.9360 -81.0180 0.4064 0.1474 0.6610 -3.1078 5.1333 46.7338 -85.9052 -20.8635 86.7844 15.6285 -19.7183 39.9282 -0.8317 -0.1624 -1.0364 -51.0738 11.9705 82.0152 -1.8171 55.8141 12.6874 -5.3631 -4.5978 1.0509 -6.8943 11.3306 3.7807 -39.9719 -3.8396 92.1128 -0.6635 35.1330 15.8133 -14.6553 6.0657 0.2068 1.1936 -20.4264 4.4646 
0.0000 93.1000 0.0000 68.1103 -43.9940 -14.6109 -71.0121 -0.4653 87.9000 66.7360 62.4328 13.5360 5.8706 11.2222 12.9228 -129.9111 26.9374 172.4614 -162.5506 67.2488 -162.6708 -0.9291 -21.3555 -15.1199 -40.6162 18.6074 -164.2032 27.9258 2.3406 -83.0232 0.1688 0.7237 -0.3584 -1.3124 4.2549 46.9916 -91.0434 -11.8409 89.3427 8.9831 -10.5161 42.2023 0.3531 -1.1044 -0.7316 -55.0599 9.2369 79.3857 -0.9008 48.4942 15.6859 -5.7328 -9.9386 -1.8472 1.6413 -8.2637 -2.3159 -36.5983 -1.9697 103.9184 1.5284 37.2710 1.6983 -16.0919 5.6491 2.9558 3.6998 -24.3868 1.5361 
0.0000 93.1000 0.0000 66.2675 -34.8814 -14.5247 -70.8658 -0.8120 87.5517 65.6944 63.7986 13.5722 3.0901 11.2427 14.8791 -130.7871 30.0231 164.8676 -158.1172 72.2168 -169.9024 -1.2020 -21.1038 -15.7969 -42.5830 10.7279 -162.1923 26.9378 1.6014 -85.3009 -0.1441 0.7724 0.3608 -1.5431 4.9502 48.1950 -99.0332 -2.3073 89.1187 6.9460 -7.7654 46.1912 0.0856 -1.0828 -0.1122 -52.0747 7.6967 77.2211 -0.5603 43.2026 16.1430 -6.2149 -14.7379 -2.1472 3.9649 -9.2290 -7.7027 -33.9558 -6.7704 105.7441 0.9067 39.2422 -2.6323 -16.6961 3.3547 2.9040 2.6555 -22.6824 0.4603 
0.0000 93.1000 0.0000 66.6432 -28.0039 -12.5303 -70.6504 -0.8029 87.6807 71.9450 66.3743 8.2133 1.2411 13.7618 12.1224 -127.8289 32.6868 154.1394 -155.6310 76.3131 -171.3860 -1.2916 -21.7807 -17.9635 -44.6612 5.7223 -160.1770 25.5776 -0.2794 -88.3390 -0.8159 0.7064 0.9529 -2.0582 5.6091 50.6439 -109.1895 6.5729 89.0760 5.8365 -7.1432 48.2514 0.0998 -0.8515 0.1314 -48.1908 8.2955 80.4591 -2.1770 42.6000 2.3815 -5.3299 -17.8412 -2.1181 4.9533 -11.9348 1.1722 -33.4645 -12.5280 100.0413 0.8540 38.7224 1.5291 -16.4112 5.9254 2.3822 2.1115 -23.8992 -10.5191 
0.0000 93.1000 0.0000 68.4061 -23.3803 -11.8602 -70.6791 1.3742 87.6089 80.7593 68.6755 0.7541 0.6642 16.3324 9.5711 -125.0228 34.3508 147.6483 -166.8619 79.7243 -159.8755 0.7595 -21.0830 -20.0740 -47.6686 4.1506 -156.0368 24.5983 0.4230 -89.8677 0.5806 -1.7880 -0.1423 -2.5042 6.1684 50.5387 -119.7563 11.9546 90.2607 4.8115 -5.6432 48.9106 0.2049 2.1879 -0.4904 -43.2645 9.9568 86.6486 -3.5831 45.9234 -8.3944 -3.4096 -15.5832 -0.7717 5.2126 -13.6205 4.2351 -36.2191 -16.9077 97.6067 2.1565 38.3754 3.5523 -13.2606 6.3646 2.2664 0.9027 -25.0848 -18.6966 
0.0000 93.1000 0.0000 69.2777 -21.0685 -9.3488 -70.8123 0.2278 87.4464 91.9642 71.0422 -8.0937 -1.7985 19.2878 8.0909 -122.6876 34.8986 145.6702 174.0349 81.9024 -142.0081 -0.5288 -21.3506 -22.8123 -47.7354 7.1202 -154.1984 25.8768 -1.2984 -91.1713 0.6466 -0.2740 0.1182 -2.1214 5.7153 47.6078 -126.4862 13.7877 90.3493 3.5460 -4.2541 48.9801 1.2671 0.3569 0.2116 -42.7545 11.1797 90.3198 -4.4112 47.6314 -11.4889 -3.2285 -15.3719 -1.7216 4.3975 -12.9695 4.8310 -37.6888 -19.9885 94.6335 1.8955 37.3125 5.3375 -12.6031 8.8170 1.9396 0.9877 -26.7558 -22.4506 
